<svg xmlns="http://www.w3.org/2000/svg" width="30" height="31" viewBox="0 0 30 31" fill="none">
<g filter="url(#filter0_d_76_944)">
<path d="M20 2H10C7.23858 2 5 4.23858 5 7V17C5 19.7614 7.23858 22 10 22H20C22.7614 22 25 19.7614 25 17V7C25 4.23858 22.7614 2 20 2Z" stroke="#A37A03" stroke-width="2" stroke-linecap="round" stroke-linejoin="round"/>
<path d="M18.9997 11.3698C19.1231 12.2021 18.981 13.052 18.5935 13.7988C18.206 14.5456 17.5929 15.1512 16.8413 15.5295C16.0898 15.9077 15.2382 16.0394 14.4075 15.9057C13.5768 15.7721 12.8095 15.3799 12.2145 14.785C11.6196 14.1901 11.2274 13.4227 11.0938 12.592C10.9601 11.7614 11.0918 10.9097 11.47 10.1582C11.8483 9.40667 12.4539 8.79355 13.2007 8.40605C13.9475 8.01856 14.7975 7.8764 15.6297 7.99981C16.4786 8.1257 17.2646 8.52128 17.8714 9.12812C18.4782 9.73496 18.8738 10.5209 18.9997 11.3698Z" stroke="#A37A03" stroke-width="2" stroke-linecap="round" stroke-linejoin="round"/>
<path d="M20.5 6.5H20.51" stroke="#A37A03" stroke-width="2" stroke-linecap="round" stroke-linejoin="round"/>
</g>
<defs>
<filter id="filter0_d_76_944" x="-1" y="0" width="32" height="32" filterUnits="userSpaceOnUse" color-interpolation-filters="sRGB">
<feFlood flood-opacity="0" result="BackgroundImageFix"/>
<feColorMatrix in="SourceAlpha" type="matrix" values="0 0 0 0 0 0 0 0 0 0 0 0 0 0 0 0 0 0 127 0" result="hardAlpha"/>
<feOffset dy="4"/>
<feGaussianBlur stdDeviation="2"/>
<feComposite in2="hardAlpha" operator="out"/>
<feColorMatrix type="matrix" values="0 0 0 0 0 0 0 0 0 0 0 0 0 0 0 0 0 0 0.25 0"/>
<feBlend mode="normal" in2="BackgroundImageFix" result="effect1_dropShadow_76_944"/>
<feBlend mode="normal" in="SourceGraphic" in2="effect1_dropShadow_76_944" result="shape"/>
</filter>
</defs>
</svg>