<svg width="280" height="88" viewBox="0 0 280 88" fill="none" xmlns="http://www.w3.org/2000/svg">
<path d="M88.538 87.8205C87.0421 87.8205 85.5462 87.727 84.0503 87.5401C77.8174 86.5428 72.426 84.2055 67.876 80.5281C63.326 76.8507 59.9291 72.2695 57.6852 66.7846C52.2626 68.4675 46.5596 69.3089 40.576 69.3089C28.7959 69.3089 19.2284 66.1925 11.8736 59.9596C4.58116 53.6644 0.934931 45.4058 0.934931 35.1839C0.934931 24.962 4.67466 16.7658 12.1541 10.5952C19.6336 4.36236 29.4815 1.24592 41.6979 1.24592C48.7411 1.24592 55.5972 1.9627 62.2664 3.39626C65.2582 4.01955 67.689 4.70516 69.5589 5.45311L68.6239 23.4038H67.7825C66.2866 17.5449 63.326 13.1819 58.9007 10.3148C54.5376 7.3853 49.2397 5.92058 43.0068 5.92058C36.774 5.92058 31.6318 8.66304 27.5805 14.148C23.5291 19.6329 21.5034 26.863 21.5034 35.8384C21.5034 41.5103 22.376 46.5277 24.1212 50.8908C25.8664 55.2538 28.3596 58.6507 31.6007 61.0815C34.8418 63.45 38.4257 64.6342 42.3524 64.6342C46.3414 64.6342 49.4579 63.7305 51.7017 61.9229C54.0079 60.0531 55.1609 57.6223 55.1609 54.6305V41.9154C55.2233 40.5442 54.8181 39.4846 53.9455 38.7367C53.1352 37.9887 51.951 37.6147 50.3928 37.6147H48.9904V36.6798H80.4041V37.6147H78.9082C77.4123 37.6147 76.2592 37.9887 75.4489 38.7367C74.6387 39.4846 74.2647 40.5442 74.327 41.9154V57.0613C74.327 60.6764 75.0438 64.2603 76.4774 67.813C79.7185 75.6664 84.8917 80.7151 91.9972 82.9589C94.0541 83.5822 96.1109 83.8938 98.1678 83.8938C100.225 83.8938 102.25 83.6757 104.245 83.2394L104.432 84.1743C98.8222 86.6051 93.5243 87.8205 88.538 87.8205ZM151.933 67.0651H152.681V68H117.247V67.0651H118.088C119.46 67.0651 120.488 66.6599 121.174 65.8497C121.859 64.9771 122.202 64.1979 122.202 63.5123C122.202 62.7644 122.046 61.9853 121.735 61.175L118.088 52.4801H98.0808L94.3411 61.175C94.0295 61.9853 93.8737 62.6397 93.8737 63.1384C93.8737 63.637 93.9671 64.1979 94.1541 64.8212C94.4034 65.3822 94.8709 65.912 95.5565 66.4106C96.3045 66.8469 97.0836 67.0651 97.8939 67.0651H98.7353V68H77.8863V67.0651H78.7278C80.1613 67.0651 81.5637 66.6599 82.935 65.8497C84.3685 64.9771 85.5528 63.6993 86.4877 62.0164L108.272 14.2415C111.575 7.26064 113.351 2.61715 113.601 0.31099H114.442L144.079 61.9229C146.074 65.351 148.692 67.0651 151.933 67.0651ZM100.138 47.8055H116.125L108.272 29.1069L100.138 47.8055ZM153.403 0.778455C154.338 1.15243 155.959 1.5264 158.265 1.90037C160.633 2.27435 162.285 2.46133 163.22 2.46133C164.217 2.46133 164.716 2.46133 164.716 2.46133H196.971C199.589 2.46133 201.801 2.30551 203.609 1.99387C205.417 1.68222 206.507 1.43291 206.881 1.24592V2.08736L175.468 63.3253H188.65C193.2 63.3253 197.22 61.8295 200.711 58.8377C204.201 55.7836 206.663 51.6075 208.097 46.3096H209.032L205.479 68H152.094V67.1586L183.134 7.13599H166.305C162.566 7.19832 159.636 8.32023 157.517 10.5017C155.398 12.6209 154.338 15.5504 154.338 19.2901V20.038H153.403V0.778455ZM215.201 67.0651C216.822 67.0651 218.193 66.5041 219.315 65.3822C220.499 64.1979 221.123 62.7956 221.185 61.175V9.37982C221.123 7.3853 220.281 5.79592 218.661 4.61167C217.663 3.86373 216.51 3.48975 215.201 3.48975H213.986V2.55482H255.403C258.084 2.55482 260.452 2.33667 262.509 1.90037C264.628 1.46407 265.968 1.12126 266.529 0.871947V20.1315H265.594V19.3836C265.594 14.3973 263.787 10.9069 260.172 8.91236C258.426 7.9151 256.338 7.3853 253.908 7.32297H240.351V33.4076H250.542C253.534 33.3452 255.964 32.3791 257.834 30.5093C259.704 28.5771 260.639 26.1151 260.639 23.1233V22.7493H261.574V48.7404H260.639V48.273C260.639 45.3435 259.704 42.9438 257.834 41.074C255.964 39.1418 253.565 38.1445 250.635 38.0822H240.351V63.2319H251.851C256.401 63.2319 260.421 61.736 263.911 58.7442C267.402 55.7524 269.864 51.6075 271.297 46.3096H272.232L268.679 68H213.986V67.0651H215.201Z" fill="#CDA100"/>
</svg>
